:SAMPLES-PER-SECOND 30
:FULLY-SPECIFIED
:DEGREES
224
root  -46.7701 39.5554 3.54477 -124.657 -83.0057 119.17
RightUpLeg  -15.3483 -4.7625 -14.781
RightLeg  9.33365 3.31192 -0.856818
RightFoot  -0.658455 -0.893628 9.48833
RightToes  9.54606e-009 0 -3.6325e-017
Spine  3.35523 -0.881176 -5.89483
Spine1  10.1907 -1.33629 0.191813
HEad  -20.7843 -1.75835 -2.88874
LeftShoulder1  -0.288654 4.3026 -30.0162
LeftArm  -5.50671 -11.6644 -45.1216
LeftForeArm  28.123 -44.0525 -8.90253
LeftHand  -0.0302047 5.01336 1.71085
RightShoulder  -0.878555 -6.02607 28.2465
RightArm  9.4037 -0.547927 51.371
RightForeArm  15.6423 11.3394 5.17108
RightHand  -0.107976 3.74785 -1.62703
LeftUpLeg  4.85996 5.53243 -4.09951
LeftLeg  14.3375 -4.34189 -0.806076
LeftFoot  -13.8866 0.182719 4.47331
LeftToes  -8.26734e-010 9.74065e-011 1.64617e-011
225
root  -47.9653 39.4518 3.00093 -118.734 -83.4836 112.851
RightUpLeg  -14.1993 -10.6428 -13.2562
RightLeg  2.81176 11.4662 -2.12523
RightFoot  -0.635012 -0.882821 9.35271
RightToes  9.54606e-009 0 -3.6325e-017
Spine  2.9824 -0.892777 -5.18632
Spine1  10.0911 -1.35953 0.562745
HEad  -19.9706 -1.77356 -3.56861
LeftShoulder1  -0.303729 4.34025 -30.1534
LeftArm  -5.45589 -12.6986 -44.7417
LeftForeArm  30.5117 -49.1513 -10.6569
LeftHand  -0.0354092 5.26165 1.79483
RightShoulder  -0.853906 -5.9566 28.2124
RightArm  9.23376 -2.49487 51.0822
RightForeArm  19.5397 8.12971 5.52105
RightHand  -0.0462734 3.21669 -0.870894
LeftUpLeg  7.60825 5.53907 -3.04516
LeftLeg  13.815 -5.5022 -0.6043
LeftFoot  -15.5925 0.228538 3.63064
LeftToes  -8.26734e-010 9.74065e-011 1.64617e-011
226
root  -49.1635 39.2495 2.41841 -119.33 -84.0949 112.905
RightUpLeg  -13.887 -10.967 -12.4103
RightLeg  3.06579 11.0099 -1.71915
RightFoot  2.67469 -1.30231 10.6235
RightToes  9.54606e-009 0 -3.6325e-017
Spine  2.19696 -0.710893 -4.12236
Spine1  11.1667 -1.3523 1.56761
HEad  -19.5762 -1.87708 -4.18064
LeftShoulder1  -0.401764 4.59391 -30.7193
LeftArm  -4.75615 -13.8444 -44.0221
LeftForeArm  31.2002 -52.6857 -12.2083
LeftHand  -0.0316064 4.887 1.63082
RightShoulder  -0.815556 -5.87129 27.8401
RightArm  8.82738 -4.21211 50.6945
RightForeArm  20.6688 6.24198 5.3585
RightHand  -0.0348811 2.05058 -0.719502
LeftUpLeg  10.0148 3.99694 -1.94164
LeftLeg  14.3911 -4.55555 0.0656736
LeftFoot  -17.7278 0.240094 2.431
LeftToes  -8.26734e-010 9.74065e-011 1.64617e-011
227
root  -50.3555 38.8906 1.81236 -127.712 -84.9955 120.793
RightUpLeg  -14.8852 -8.99891 -11.4682
RightLeg  9.38553 9.33498 0.0688913
RightFoot  7.68918 -1.71395 10.4933
RightToes  9.54606e-009 0 -3.6325e-017
Spine  2.3527 -0.769504 -1.80815
Spine1  10.9906 -1.24182 1.16945
HEad  -19.3587 -1.06303 -4.73033
LeftShoulder1  -0.472819 4.78742 -30.6676
LeftArm  -4.32544 -13.4479 -43.177
LeftForeArm  31.6769 -55.1563 -13.4878
LeftHand  -0.0319682 4.93397 1.87244
RightShoulder  -0.905995 -6.06687 28.7466
RightArm  9.38131 -5.19782 49.0342
RightForeArm  24.0731 5.38888 5.41687
RightHand  0.02346 1.70702 0.25493
LeftUpLeg  11.2431 -0.557162 -1.2883
LeftLeg  17.4325 0.17022 1.11689
LeftFoot  -20.6075 0.205312 1.00599
LeftToes  -8.26734e-010 9.74065e-011 1.64617e-011
228
root  -51.4305 38.6609 1.30521 -151.184 -86.0762 143.44
RightUpLeg  -16.2166 -7.18248 -9.67284
RightLeg  17.3431 8.53993 2.67654
RightFoot  5.47607 -0.875411 6.17771
RightToes  9.54606e-009 0 -3.6325e-017
Spine  3.8753 -1.04411 1.83137
Spine1  10.0491 -1.22884 0.720917
HEad  -19.3948 0.480075 -5.46096
LeftShoulder1  -0.350431 4.46627 -30.286
LeftArm  -4.47215 -10.7857 -42.6637
LeftForeArm  33.1563 -57.1016 -14.4907
LeftHand  -0.0363347 4.37847 1.56958
RightShoulder  -1.00419 -6.2548 29.9585
RightArm  10.6986 -5.25554 46.7266
RightForeArm  26.2661 5.03093 5.77405
RightHand  0.0778436 1.25782 1.23044
LeftUpLeg  11.987 -4.64386 0.0641561
LeftLeg  22.1146 4.79605 2.39562
LeftFoot  -21.8123 0.00902071 -1.32204
LeftToes  -8.26734e-010 9.74065e-011 1.64617e-011
229
root  -52.4539 38.5281 0.765674 176.352 -86.3437 175.092
RightUpLeg  -15.6918 -5.4131 -7.03666
RightLeg  21.5612 6.75192 2.74367
RightFoot  2.1718 -0.579362 5.01486
RightToes  9.54606e-009 0 -3.6325e-017
Spine  4.97963 -1.21397 3.59131
Spine1  9.97829 -1.62613 2.50817
HEad  -19.8854 2.13025 -6.41542
LeftShoulder1  -0.317141 4.36916 -30.5078
LeftArm  -3.92668 -7.86262 -42.8598
LeftForeArm  33.8582 -56.6197 -14.1461
LeftHand  -0.0316771 4.74326 1.30612
RightShoulder  -0.948365 -6.09106 30.0776
RightArm  12.0488 -4.4726 44.5873
RightForeArm  23.7169 5.01616 6.2705
RightHand  -0.0236461 1.68435 -0.510708
LeftUpLeg  10.9216 -4.68694 2.78269
LeftLeg  29.6113 4.93877 3.33626
LeftFoot  -20.6079 -0.292287 -5.34197
LeftToes  -8.26734e-010 9.74065e-011 1.64617e-011
230
root  -53.3976 38.5814 0.232937 159.095 -86.7453 -167.523
RightUpLeg  -14.8661 -5.05298 -5.35285
RightLeg  23.3693 5.67235 2.46293
RightFoot  -0.243054 -0.390649 4.02063
RightToes  9.54606e-009 0 -3.6325e-017
Spine  4.7226 -1.5377 3.83866
Spine1  10.3077 -2.22662 4.7533
HEad  -19.6136 2.88143 -5.79003
LeftShoulder1  -0.335764 4.42417 -30.3296
LeftArm  -1.12086 -5.58988 -43.5351
LeftForeArm  31.78 -52.7373 -12.2339
LeftHand  -0.0344727 4.6203 1.53718
RightShoulder  -0.969834 -6.12634 30.4071
RightArm  12.2589 -3.64356 42.8623
RightForeArm  21.7618 5.05947 6.33665
RightHand  -0.0784774 2.84437 -1.3332
LeftUpLeg  7.25834 -4.36882 4.84766
LeftLeg  37.9758 4.3057 4.00473
LeftFoot  -14.7051 -0.140522 -6.59914
LeftToes  -8.26734e-010 9.74065e-011 1.64617e-011
231
root  -54.3164 38.7405 -0.21952 146.062 -86.9406 -154.074
RightUpLeg  -13.6465 -5.37832 -4.19688
RightLeg  23.6378 5.40124 2.35749
RightFoot  -2.13248 -0.310298 3.66597
RightToes  9.54606e-009 0 -3.6325e-017
Spine  4.44239 -1.80737 4.37361
Spine1  9.81517 -2.5674 5.70629
HEad  -18.4811 3.52334 -5.1239
LeftShoulder1  -0.39925 4.59032 -30.614
LeftArm  3.07141 -3.84578 -44.1957
LeftForeArm  28.4299 -46.395 -9.72148
LeftHand  -0.0390747 4.61972 2.41002
RightShoulder  -0.962852 -6.14608 29.8791
RightArm  11.9117 -3.38741 42.2143
RightForeArm  20.8455 5.75888 6.10414
RightHand  -0.0249745 1.64086 -0.556744
LeftUpLeg  2.33201 -3.49075 5.97565
LeftLeg  46.1722 5.37707 6.42563
LeftFoot  -4.76997 0.190255 -3.04227
LeftToes  -8.26734e-010 9.74065e-011 1.64617e-011
232
root  -55.1798 38.9599 -0.571461 146.844 -87.1229 -154.49
RightUpLeg  -12.1891 -6.47452 -3.93115
RightLeg  23.157 6.13096 2.58713
RightFoot  -3.29794 -0.233247 3.00197
RightToes  9.54606e-009 0 -3.6325e-017
Spine  3.90148 -1.71364 5.43173
Spine1  9.83091 -2.16832 5.20351
HEad  -18.2757 3.49105 -4.75747
LeftShoulder1  -0.340356 4.41903 -31.0508
LeftArm  8.60655 -3.2239 -44.4668
LeftForeArm  25.9813 -39.3874 -7.5552
LeftHand  -0.0290608 5.27949 0.948757
RightShoulder  -0.973631 -6.2242 29.2119
RightArm  10.8287 -3.5827 41.9854
RightForeArm  19.4948 7.41592 5.61965
RightHand  -0.0123747 1.16433 -0.297597
LeftUpLeg  -2.17969 -1.96897 5.86336
LeftLeg  52.0329 5.83097 8.32673
LeftFoot  1.01832 0.0178414 -0.040954
LeftToes  -8.26734e-010 9.74065e-011 1.64617e-011
233
root  -56.0147 39.2439 -0.901191 162.399 -86.547 -170.212
RightUpLeg  -10.0249 -7.00063 -4.20475
RightLeg  21.9326 7.34782 2.80442
RightFoot  -3.99928 -0.191084 2.55518
RightToes  9.54606e-009 0 -3.6325e-017
Spine  4.52474 -1.35422 5.70884
Spine1  9.14481 -1.4933 4.41165
HEad  -17.9311 3.84806 -5.04338
LeftShoulder1  -0.316662 4.345 -31.5044
LeftArm  15.1506 -2.40221 -44.595
LeftForeArm  24.2343 -31.8767 -5.55343
LeftHand  -0.0404172 6.25475 -0.827903
RightShoulder  -0.866035 -5.9952 28.181
RightArm  11.5806 -3.22513 42.0518
RightForeArm  15.8681 9.05151 5.85705
RightHand  -0.0646121 2.8156 -1.14179
LeftUpLeg  -5.10072 0.933292 5.17552
LeftLeg  54.6241 3.35894 5.58507
LeftFoot  -0.827294 0.0170052 -0.146109
LeftToes  -8.26734e-010 9.74065e-011 1.64617e-011
234
root  -56.8275 39.4831 -1.19546 -178.792 -85.1074 171.488
RightUpLeg  -9.10024 -7.26832 -4.90858
RightLeg  21.2525 8.92858 3.11397
RightFoot  -4.75378 -0.159006 2.19307
RightToes  9.54606e-009 0 -3.6325e-017
Spine  4.44336 -0.852023 5.66416
Spine1  8.56139 -0.616006 3.0086
HEad  -18.2211 4.40636 -5.56955
LeftShoulder1  -0.285694 4.26161 -31.5369
LeftArm  19.3059 -0.249034 -44.6494
LeftForeArm  23.5184 -25.023 -4.57616
LeftHand  -0.0737917 6.44104 -3.7238
RightShoulder  -0.831489 -5.89852 28.1103
RightArm  13.8664 -1.56487 41.8814
RightForeArm  14.9295 10.7162 6.24816
RightHand  -0.0485411 2.08851 -0.928508
LeftUpLeg  -8.09177 4.91588 3.70065
LeftLeg  54.3584 2.19378 3.78435
LeftFoot  -1.79467 0.113301 -1.22092
LeftToes  -8.26734e-010 9.74065e-011 1.64617e-011
235
root  -57.6254 39.7238 -1.44589 -172.999 -83.9151 166.107
RightUpLeg  -7.6204 -8.09455 -5.29713
RightLeg  19.8102 10.6337 3.18493
RightFoot  -5.14618 -0.125957 1.70124
RightToes  9.54606e-009 0 -3.6325e-017
Spine  4.34847 -0.617561 6.04281
Spine1  8.08757 -0.0854033 1.57988
HEad  -18.7637 5.92428 -6.52709
LeftShoulder1  -0.354149 4.42607 -32.2773
LeftArm  15.6256 1.91713 -43.7493
LeftForeArm  26.8661 -17.211 -6.61624
LeftHand  -0.164243 8.11007 -4.81893
RightShoulder  -0.771349 -5.75825 27.5885
RightArm  16.0441 -0.0160943 42.4482
RightForeArm  13.7561 12.4596 6.29944
RightHand  -0.0835715 3.23125 -1.37121
LeftUpLeg  -10.282 9.05765 2.49551
LeftLeg  51.3956 2.9045 4.33117
LeftFoot  -3.03056 0.0938397 -1.03285
LeftToes  -8.26734e-010 9.74065e-011 1.64617e-011
236
root  -58.4154 40.0254 -1.72011 -168.888 -83.1918 162.384
RightUpLeg  -5.48664 -8.62072 -5.57236
RightLeg  17.1902 11.8053 2.69392
RightFoot  -4.98963 -0.0998558 1.26675
RightToes  9.54606e-009 0 -3.6325e-017
Spine  4.02979 -0.449659 5.88044
Spine1  7.79243 0.214017 0.119898
HEad  -19.6322 7.2995 -6.63317
LeftShoulder1  -0.342716 4.39808 -32.1981
LeftArm  1.01509 5.22484 -42.7512
LeftForeArm  38.3049 -9.53789 -9.47343
LeftHand  -0.249815 9.33693 -5.55668
RightShoulder  -0.806297 -5.8537 27.6931
RightArm  18.9921 1.7722 42.5824
RightForeArm  12.2477 14.5784 6.104
RightHand  -0.0970612 2.63944 -1.61174
LeftUpLeg  -11.5524 12.8997 1.22284
LeftLeg  45.4194 5.18358 5.9816
LeftFoot  -3.69886 0.0652729 -0.663833
LeftToes  -8.26734e-010 9.74065e-011 1.64617e-011
